<svg xmlns="http://www.w3.org/2000/svg" viewBox="0 0 1024 1024"><defs><style>.cls-1{fill:#317ac6;}.cls-2{fill:#fff;}</style></defs><g id="图层_2" data-name="图层 2"><g id="图层_1-2" data-name="图层 1"><circle class="cls-1" cx="512" cy="512" r="512"/><path class="cls-2" d="M811.63,225.73c-1.6-7.45-9-14.82-16.45-16.42C751.79,200,717.82,200,684,200c-139.12,0-222.55,74.39-284.83,172.5H258.71c-22,0-47.91,16-57.79,35.69L134.3,541.36a38.26,38.26,0,0,0-3.4,14.42,32.36,32.36,0,0,0,32.36,32.34h139.9l-30.29,30.29c-15.32,15.31-17.52,43.47,0,61l68.6,68.6c15,15.08,43.34,17.73,61,0l30.29-30.28V857.66A32.34,32.34,0,0,0,465.13,890a38.53,38.53,0,0,0,14.43-3.39l133.05-66.56c19.71-9.84,35.72-35.71,35.72-57.76V621.54c97.84-62.41,172.55-146.09,172.55-284.48C821,303.1,821,269.13,811.63,225.73ZM648.46,426.41a53.91,53.91,0,1,1,53.92-53.91A53.91,53.91,0,0,1,648.46,426.41Z"/></g></g></svg>